<?xml version="1.0" standalone="no"?>
<!DOCTYPE svg PUBLIC "-//W3C//DTD SVG 20010904//EN"
 "http://www.w3.org/TR/2001/REC-SVG-20010904/DTD/svg10.dtd">
<svg version="1.0" xmlns="http://www.w3.org/2000/svg"
 width="1009.000000pt" height="388.000000pt" viewBox="0 0 1009.000000 388.000000"
 preserveAspectRatio="xMidYMid meet">

<g transform="translate(0.000000,388.000000) scale(0.100000,-0.100000)"
fill="#0984e3" stroke="none">
<path d="M0 1940 l0 -1940 5045 0 5045 0 0 1940 0 1940 -5045 0 -5045 0 0
-1940z m2925 1385 c311 -44 596 -182 813 -394 36 -35 67 -59 74 -55 7 4 8 3 4
-4 -4 -6 14 -37 40 -69 213 -260 325 -578 326 -916 0 -404 -153 -770 -439
-1050 -273 -267 -624 -409 -1018 -411 -457 -2 -875 205 -1160 574 -298 386
-377 923 -205 1389 119 323 361 605 660 769 275 151 600 211 905 167z m1861
-349 c47 -47 46 -86 -1 -133 -32 -32 -40 -35 -77 -30 -52 7 -78 33 -85 85 -13
99 92 149 163 78z m1819 2 c22 -5 59 -21 82 -35 100 -58 154 -137 161 -235 4
-57 3 -59 -36 -98 -36 -36 -45 -40 -90 -40 -41 0 -55 5 -81 29 -26 24 -31 37
-31 73 0 52 21 85 66 104 40 17 41 23 13 48 -53 45 -122 70 -194 70 -195 1
-315 -167 -303 -425 3 -83 8 -104 40 -169 60 -126 146 -191 265 -198 69 -5
122 9 174 47 45 32 105 112 114 151 4 17 11 30 16 30 11 0 89 -38 89 -44 0 -1
-9 -28 -20 -60 -43 -126 -137 -209 -270 -240 -267 -63 -505 86 -575 359 -22
88 -20 228 6 311 78 254 317 388 574 322z m-1121 -22 c203 -45 311 -121 380
-266 27 -57 31 -78 34 -171 2 -59 -1 -130 -7 -159 -36 -168 -154 -282 -351
-341 -67 -19 -104 -22 -332 -26 l-258 -5 0 51 0 51 80 0 80 0 0 395 0 395 -80
0 -80 0 0 51 0 52 233 -6 c149 -4 257 -12 301 -21z m1954 -276 c66 -29 133
-102 163 -178 30 -75 33 -232 6 -307 -27 -78 -83 -143 -157 -184 -62 -34 -70
-36 -160 -36 -111 1 -162 19 -232 84 -163 150 -146 473 32 596 60 42 115 55
210 52 62 -3 100 -10 138 -27z m526 -40 l7 -61 22 32 c12 19 42 47 66 64 40
28 49 30 131 30 101 0 130 -14 165 -78 11 -20 22 -37 25 -37 3 1 17 18 31 39
37 53 99 81 177 81 73 0 116 -16 154 -56 56 -60 62 -88 66 -346 l4 -238 59 0
59 0 0 -40 0 -40 -190 0 -190 0 0 40 0 40 55 0 55 0 0 208 c0 272 -11 311 -93
333 -55 14 -118 -10 -147 -55 -19 -31 -20 -49 -20 -260 l0 -226 55 0 55 0 0
-40 0 -40 -185 0 -185 0 0 40 0 40 56 0 55 0 -3 228 c-3 208 -5 230 -24 262
-37 64 -123 75 -184 23 -49 -41 -60 -99 -60 -320 l0 -193 55 0 55 0 0 -40 0
-40 -195 0 -195 0 0 40 0 40 65 0 65 0 0 270 0 270 -65 0 -65 0 0 40 c0 33 4
41 23 45 22 5 217 12 228 8 4 -2 9 -30 13 -63z m-3154 -260 l0 -310 60 0 60 0
0 -40 0 -40 -200 0 -200 0 0 40 0 40 65 0 65 0 0 270 0 270 -65 0 -65 0 0 40
0 40 140 0 140 0 0 -310z"/>
<path d="M2585 3264 c-521 -57 -983 -417 -1160 -904 -267 -739 126 -1552 869
-1795 354 -116 725 -87 1059 83 376 190 641 535 732 952 26 119 31 374 10 500
-49 296 -178 543 -395 761 -205 206 -438 329 -721 384 -83 16 -317 27 -394 19z
m410 -69 c113 -25 223 -64 330 -117 55 -28 101 -51 103 -52 1 -2 -24 -22 -57
-44 -73 -52 -142 -127 -170 -187 -26 -54 -28 -141 -5 -207 27 -80 123 -157
217 -175 51 -9 105 -44 118 -74 15 -37 5 -87 -25 -124 l-25 -30 -49 48 -49 48
-114 -25 c-63 -13 -144 -29 -182 -36 -37 -6 -78 -15 -91 -19 -12 -5 -108 -94
-212 -198 -104 -103 -296 -292 -426 -418 -131 -126 -238 -233 -238 -238 0 -4
57 -65 128 -135 70 -71 192 -194 271 -275 80 -81 148 -147 152 -147 4 0 199
189 433 421 370 367 426 426 432 458 3 20 22 105 40 189 19 84 34 161 34 172
0 11 -16 38 -36 60 l-36 39 25 33 c73 96 54 241 -38 298 -35 22 -167 71 -197
73 -9 1 -16 4 -15 7 1 3 -8 16 -21 30 -29 32 -35 57 -30 129 8 118 109 205
252 218 l68 6 87 -90 c237 -247 350 -494 391 -855 23 -202 -34 -487 -141 -700
-88 -176 -282 -399 -434 -500 -263 -173 -605 -262 -881 -229 -256 31 -486 117
-670 251 -82 60 -220 200 -292 297 -114 155 -201 364 -237 572 -20 109 -19
325 0 437 19 105 71 267 120 368 186 387 555 657 1000 732 102 17 373 11 470
-11z m427 -1127 c27 -36 24 -109 -6 -137 -46 -43 -144 -20 -164 38 -17 49 6
102 53 122 34 15 97 3 117 -23z"/>
<path d="M5270 2480 l0 -393 78 6 c91 6 177 34 248 82 44 28 59 47 89 109 31
62 38 88 42 159 11 166 -34 288 -130 354 -64 43 -133 63 -239 70 l-88 6 0
-393z"/>
<path d="M7236 2620 c-41 -13 -81 -55 -107 -114 -20 -42 -23 -68 -24 -156 0
-132 15 -182 69 -236 99 -100 234 -56 280 90 14 44 17 81 14 159 -3 89 -7 110
-33 162 -43 87 -114 120 -199 95z"/>
</g>
</svg>
